<?xml version="1.0" standalone="no"?>
<!DOCTYPE svg PUBLIC "-//W3C//DTD SVG 20010904//EN"
 "http://www.w3.org/TR/2001/REC-SVG-20010904/DTD/svg10.dtd">
<svg version="1.0" xmlns="http://www.w3.org/2000/svg"
 width="100.000000pt" height="100.000000pt" viewBox="0 0 100.000000 100.000000"
 preserveAspectRatio="xMidYMid meet">

<g transform="translate(0.000000,100.000000) scale(0.100000,-0.100000)"
fill="#57034d" stroke="none">
<path d="M207 802 c-10 -10 -17 -25 -17 -33 0 -23 83 -149 98 -149 27 0 22 31
-13 85 -20 32 -34 60 -31 63 3 3 158 -14 343 -37 186 -22 341 -41 346 -41 4 0
7 -4 7 -10 0 -11 -461 -507 -475 -511 -16 -4 -36 179 -23 226 16 63 69 106
176 144 75 27 92 36 92 53 0 26 -25 22 -140 -22 -166 -65 -199 -132 -169 -347
12 -89 20 -103 60 -103 32 0 34 2 348 340 186 200 204 229 166 260 -11 9 -673
99 -736 100 -9 0 -23 -8 -32 -18z"/>
<path d="M193 493 c-51 -19 -73 -32 -73 -43 0 -28 9 -29 84 -4 84 28 112 46
102 62 -10 17 -32 14 -113 -15z"/>
<path d="M180 372 c-81 -31 -126 -53 -128 -63 -6 -30 23 -27 148 20 145 53
151 57 143 76 -8 22 -25 18 -163 -33z"/>
</g>
</svg>
